<?xml version="1.0" encoding="utf-8"?>
<!-- Generator: Adobe Illustrator 18.0.0, SVG Export Plug-In . SVG Version: 6.00 Build 0)  -->
<!DOCTYPE svg PUBLIC "-//W3C//DTD SVG 1.1//EN" "http://www.w3.org/Graphics/SVG/1.1/DTD/svg11.dtd">
<svg version="1.1" id="Layer_1" xmlns="http://www.w3.org/2000/svg" xmlns:xlink="http://www.w3.org/1999/xlink" x="0px" y="0px"
	 viewBox="0 0 90 90" enable-background="new 0 0 90 90" xml:space="preserve">
<path fill="#33425B" d="M45,0C20.1,0,0,20.1,0,45c0,24.9,20.1,45,45,45c24.9,0,45-20.1,45-45C90,20.1,69.9,0,45,0z"/>
<path fill="#159E18" d="M71.6,69.4c-1.3-4.9-12.7-8.9-26.7-8.9s-25.2,4-26.6,8.9c-0.6,2.2-1.3,6.4-1.8,10.4C24.3,86.2,34.2,90,45,90
	c10.8,0,20.7-3.8,28.5-10.1C72.9,75.8,72.2,71.6,71.6,69.4z"/>
<g>
	<path fill="#CE926A" d="M45,57.5l-6.8,3.3c0,0,3.1,5.1,6.8,5.1c3.8,0,6.9-5.1,6.9-5.1L45,57.5z"/>
	<path fill="#CE926A" d="M52.1,51.2H37.9c2.2,6.6,0.2,9.7,0.2,9.7l4.9,1.1h4l4.9-1.1C51.9,60.8,49.9,57.8,52.1,51.2z"/>
</g>
<path fill="#F7F7F7" d="M51.9,60.8c0,0-1.6,3.1-6.9,3.1s-6.8-3.1-6.8-3.1s-1.3,9.9,6.9,9.9S51.9,60.8,51.9,60.8z"/>
<path fill="#F4B382" d="M45,11.2c-8.8,0-16,3.8-16,20.6c0,5.7,1.1,10.1,2.8,13.5c3.7,7.5,10.1,10.2,13.2,10.2
	c3.1,0,9.5-2.6,13.2-10.2c1.7-3.4,2.8-7.9,2.8-13.5C61,15,53.8,11.2,45,11.2z"/>
<path fill="#F4B382" d="M45,11.2c-8.8,0-16,3.8-16,20.6c0,5.7,1.1,10.1,2.8,13.5c3.7,7.5,10.1,6.4,13.2,6.4c3.1,0,9.5,1.1,13.2-6.4
	c1.7-3.4,2.8-7.9,2.8-13.5C61,15,53.8,11.2,45,11.2z"/>
<path fill="#F4B382" d="M29.3,32.3c-1.5,0.3-2.7,0.9-1.8,6c0.9,5.1,1.9,5.3,3.5,5L29.3,32.3z"/>
<g>
	<path fill="#E0D299" d="M45,11.2c-8.8,0-16,3.8-16,20.6l24.4-12.4L61,31.8C61,15,53.8,11.2,45,11.2z"/>
	<path fill="#E0D299" d="M32.7,25.7L30,25.5c-0.8,2-1,4.4-1,6.8c0,0,1.6-0.3,1.6,0.5l0.5,5l0.7-0.3C31.7,33.3,32.7,25.7,32.7,25.7z"
		/>
</g>
<path fill="#F4B382" d="M60.7,32.3l-1.6,11c1.5,0.3,2.6,0,3.5-5C63.4,33.2,62.3,32.6,60.7,32.3z"/>
<path fill="#E0D299" d="M60,25.5l-2.7-0.1c0,0,0.9,7.8,0.9,12l0.7,0.3l0.5-5c0-0.8,1.6-0.5,1.6-0.5C61,30,60.8,27.5,60,25.5z"/>
</svg>
