<?xml version="1.0" encoding="utf-8"?>
<!-- Generator: Adobe Illustrator 18.0.0, SVG Export Plug-In . SVG Version: 6.00 Build 0)  -->
<!DOCTYPE svg PUBLIC "-//W3C//DTD SVG 1.1//EN" "http://www.w3.org/Graphics/SVG/1.1/DTD/svg11.dtd">
<svg version="1.1" id="Layer_1" xmlns="http://www.w3.org/2000/svg" xmlns:xlink="http://www.w3.org/1999/xlink" x="0px" y="0px"
	 viewBox="0 0 90 90" enable-background="new 0 0 90 90" xml:space="preserve">
<path fill="#33425B" d="M45,0C20.1,0,0,20.1,0,45c0,24.9,20.1,45,45,45c24.9,0,45-20.1,45-45C90,20.1,69.9,0,45,0z"/>
<path fill="#020202" d="M75.9,69.4c-1.5-4.9-14.7-8.9-31-8.9s-29.3,4-30.8,8.9c-0.5,1.5-1,4-1.5,6.8C20.8,84.7,32.3,90,45,90
	c12.7,0,24.2-5.3,32.4-13.8C76.9,73.5,76.4,71,75.9,69.4z"/>
<g>
	<path fill="#D4D6D8" d="M44.9,65.7l-6.8-4.9c0,0,3.7,25.2,6.9,25.2s6.8-25.2,6.8-25.2L44.9,65.7z"/>
	<polygon fill="#D4D6D8" points="45,57.5 37.8,58.5 38.1,60.8 44.9,65.9 51.9,60.8 52.2,58.5 	"/>
</g>
<path fill="#E2A379" d="M52.1,51.2H37.9c2.2,6.6,0.2,9.7,0.2,9.7l4.9,1.1h4l4.9-1.1C51.9,60.8,49.9,57.8,52.1,51.2z"/>
<g>
	<polygon fill="#F3FAFF" points="52.2,58.5 51.2,65.1 55.5,61.3 	"/>
	<polygon fill="#F3FAFF" points="37.8,58.5 34.5,61.3 38.8,65.1 	"/>
	<path fill="#F3FAFF" d="M52.2,58.5L45,61.9c0,0,6.2,3.1,6.2,3.1l4.3-3.8L52.2,58.5z"/>
	<path fill="#F3FAFF" d="M37.8,58.5l-3.2,2.8l4.3,3.8c0,0,6.2-3.1,6.2-3.1L37.8,58.5z"/>
</g>
<g>
	<polygon fill="#86B4D1" points="45,61.9 42.1,63.4 45,68 47.8,63.4 	"/>
	<path fill="#86B4D1" d="M45.7,65.6h-1.5l-2,15.3c0.9,3,1.9,5.1,2.8,5.1c0.9,0,1.9-2.1,2.8-5.1L45.7,65.6z"/>
</g>
<g>
	<path fill="#4A4A54" d="M45,88.8l0-2.7c0,0-6.2-21-6.2-21l-3.1-4.8l-2.3,1.2l1.5,10l3-0.7l-2.2,2.7L45,88.8z"/>
	<path fill="#4A4A54" d="M56.6,61.5l-2.3-1.2L51.2,65c0,0-6.2,21-6.2,21l0,2.7l9.4-15.3l-2.2-2.7l3,0.7L56.6,61.5z"/>
</g>
<g>
	<path fill="#F4B382" d="M45,11.2c-8.8,0-16,3.8-16,20.6c0,5.7,1.1,10.1,2.8,13.5c3.7,7.5,10.1,10.2,13.2,10.2
		c3.1,0,9.5-2.6,13.2-10.2c1.7-3.4,2.8-7.9,2.8-13.5C61,15,53.8,11.2,45,11.2z"/>
	<path fill="#F4B382" d="M29.3,32.3c-1.5,0.3-2.7,0.9-1.8,6c0.9,5.1,1.9,5.3,3.5,5L29.3,32.3z"/>
</g>
<g>
	<path fill="#A84914" d="M45,11.2c-8.8,0-16,3.8-16,20.6c0,0,11.4,1.3,21.1-7.8C53.4,21,61,31.8,61,31.8C61,15,53.8,11.2,45,11.2z"
		/>
	<path fill="#A84914" d="M32.7,31.7L30,25.5c-0.8,2-1,4.4-1,6.8c0,0,1.6-0.3,1.6,0.5l0.5,5l0.7-0.3C31.7,33.3,32.7,31.7,32.7,31.7z"
		/>
</g>
<path fill="#F4B382" d="M60.7,32.3l-1.6,11c1.5,0.3,2.6,0,3.5-5C63.4,33.2,62.3,32.6,60.7,32.3z"/>
<g>
	<path fill="#A84914" d="M60,25.5l-2.7,6.2c0,0,0.9,1.6,0.9,5.8l0.7,0.3l0.5-5c0-0.8,1.6-0.5,1.6-0.5C61,30,60.8,27.5,60,25.5z"/>
	<path fill="#A84914" d="M44.1,41.8c-1.2-0.4-2.6-0.1-3.7,1.6c-1.1,1.6-3.1,0.5-3.1-0.6c0-1,1.2-0.6,1,0c0,0,0.3-0.4,0.1-0.8
		c-0.5-1.1-2.1-0.3-2,1.2c0,0,0.1,3,4.4,3.1c1.1,0,2.6-0.2,3.8-1.5C45.4,43.9,45.2,42.2,44.1,41.8z"/>
	<path fill="#A84914" d="M51.6,42c-0.2,0.4,0.1,0.8,0.1,0.8c-0.2-0.6,0.9-1,1,0c0,1.1-2,2.2-3.1,0.6c-1.1-1.7-2.6-2-3.7-1.6
		c-1.1,0.4-1.3,2.1-0.5,3c1.2,1.3,2.7,1.6,3.8,1.5c4.3-0.1,4.4-3.1,4.4-3.1C53.7,41.7,52.1,40.9,51.6,42z"/>
</g>
</svg>
