<?xml version="1.0" encoding="utf-8"?>
<!-- Generator: Adobe Illustrator 18.0.0, SVG Export Plug-In . SVG Version: 6.00 Build 0)  -->
<!DOCTYPE svg PUBLIC "-//W3C//DTD SVG 1.1//EN" "http://www.w3.org/Graphics/SVG/1.1/DTD/svg11.dtd">
<svg version="1.1" id="Layer_1" xmlns="http://www.w3.org/2000/svg" xmlns:xlink="http://www.w3.org/1999/xlink" x="0px" y="0px"
	 viewBox="0 0 90 90" enable-background="new 0 0 90 90" xml:space="preserve">
<path fill="#33425B" d="M45,0C20.1,0,0,20.1,0,45c0,24.9,20.1,45,45,45c24.9,0,45-20.1,45-45C90,20.1,69.9,0,45,0z"/>
<rect x="31.3" y="35.1" fill="#E5CE6A" width="27.2" height="38.9"/>
<path fill="#D33D3D" d="M71.6,69.4c-1.3-4.9-12.7-8.9-26.7-8.9s-25.2,4-26.6,8.9c-0.6,2.2-1.3,6.4-1.8,10.4C24.3,86.2,34.2,90,45,90
	c10.8,0,20.7-3.8,28.5-10.1C72.9,75.8,72.2,71.6,71.6,69.4z"/>
<path fill="#CE926A" d="M52.1,51.2H37.9c2.2,6.6,0.2,9.7,0.2,9.7l4.9,1.1h4l4.9-1.1C51.9,60.8,49.9,57.8,52.1,51.2z"/>
<g>
	<path fill="#F2DE7C" d="M54,31.8L31.4,18.5c-9.8,19.2-8.4,39.4-5.1,44.6c6.5,10.5-0.7,14.1-0.7,14.1l0.4-0.2
		c0,0,13.2-1.7,10.9-13.8C35.7,57.4,35.2,45.4,54,31.8z"/>
	<path fill="#F2DE7C" d="M63.7,63.1c3.2-5.2,4.7-25.4-5.1-44.6L36,31.8c18.9,13.7,18.3,25.7,17.2,31.5C50.9,75.3,64.1,77,64.1,77
		l0.4,0.2C64.4,77.2,57.2,73.6,63.7,63.1z"/>
</g>
<path fill="#DB9A6E" d="M45,11.2c-8,0-14.5,3.8-14.5,20.6c0,5.7,1,10.1,2.5,13.5c3.3,7.5,9.1,10.2,11.9,10.2
	c2.8,0,8.6-2.6,11.9-10.2c1.5-3.4,2.5-7.9,2.5-13.5C59.5,15,53,11.2,45,11.2z"/>
<path fill="#E24444" d="M46.9,46.8c-0.5-0.1-1.9,0.5-1.9,0.5s-1.4-0.5-1.9-0.4c-0.9,0.1-2.2,1.6-2.2,1.9c0,0,1.8,1,4.1,1
	s4.1-1,4.1-1S47.8,46.9,46.9,46.8z"/>
<path fill="#D33D3D" d="M46.1,48c-0.4,0-0.8,0.3-1.1,0.3c-0.3,0-0.9-0.3-1.3-0.3c-2.4,0.1-2.8,0.7-2.8,0.7s1.8,1.7,4.1,1.7
	c2.3,0,4.1-1.7,4.1-1.7S48.6,48.1,46.1,48z"/>
<g>
	<path fill="#CE926A" d="M51.9,60.8c0,0-1.6,3.1-6.9,3.1c-5.3,0-6.8-3.1-6.8-3.1s-1.3,9.9,6.9,9.9C53.2,70.8,51.9,60.8,51.9,60.8z"
		/>
	<path fill="#CE926A" d="M45,57.5l-6.8,3.3c0,0,3.1,5.1,6.8,5.1c3.8,0,6.9-5.1,6.9-5.1L45,57.5z"/>
</g>
<path fill="#F2DE7C" d="M45,11.2L45,11.2L45,11.2c-8.8,0-16,3.8-16,20.6c0,0,16-4.1,16-10.2c0,6.1,16,10.2,16,10.2
	C61,15,53.8,11.2,45,11.2z"/>
<g>
	<path fill="#DB9A6E" d="M30.8,32.3c-1.4,0.2-2.4,0.8-1.7,5.4c0.8,4.6,1.7,4.8,3.1,4.5L30.8,32.3z"/>
	<path fill="#DB9A6E" d="M59.2,32.3l-1.5,9.9c1.4,0.2,2.4,0,3.1-4.5S60.6,32.5,59.2,32.3z"/>
</g>
<g>
	<path fill="#F2DE7C" d="M31.7,32.9c-0.2-1.2,0-2.1,0-2.1l-2.7,1c0,0,1.7,0.2,2.3,2.2C31.3,33.9,31.9,34.4,31.7,32.9z"/>
	<path fill="#F2DE7C" d="M58.3,30.8c0,0,0.2,1,0,2.1c-0.2,1.5,0.4,1,0.4,1c0.6-1.9,2.3-2.2,2.3-2.2L58.3,30.8z"/>
</g>
</svg>
