<svg xmlns="http://www.w3.org/2000/svg" viewBox="0 0 512 512"><g fill="#CF2930"><path d="M256 0C114.8 0 0 114.8 0 256s114.8 256 256 256 256-114.8 256-256S397.2 0 256 0zm0 470.7c-118.4 0-214.7-96.3-214.7-214.7 0-118.4 96.3-214.7 214.7-214.7S470.7 137.6 470.7 256 374.4 470.7 256 470.7z"/><path d="M337.6 174.4L218.1 293.9l-43.7-43.7c-8.1-8.1-21.1-8.1-29.2 0-8.1 8.1-8.1 21.1 0 29.2l58.3 58.3c4 4 9.3 6 14.6 6 5.3 0 10.6-2 14.6-6l134.1-134.1c8.1-8.1 8.1-21.1 0-29.2-8.1-8.1-21.1-8.1-29.2 0z"/></g></svg>