<svg id="Layer_1" data-name="Layer 1" xmlns="http://www.w3.org/2000/svg" viewBox="0 0 90 90"><defs><style>.cls-1{fill:#33425b;}.cls-2{fill:#666;}.cls-3{fill:#fed198;}.cls-4{fill:#f0b97d;}.cls-5{fill:#fbb429;}.cls-6{fill:#fff;}</style></defs><title>client_fm</title><path class="cls-1" d="M45,90A45,45,0,1,0,0,45,45.09,45.09,0,0,0,45,90Z" transform="translate(0 0)"/><path class="cls-2" d="M30,53.09c-3.75-9.47-11.64-18-1.72-35.29C32.34,10.68,38.58,6,45,7.58,51.47,6,57.71,10.68,61.8,17.79c9.92,17.26,2,25.83-1.72,35.29L45,53.12,30,53.09h0Z" transform="translate(0 0)"/><path class="cls-3" d="M19.67,67.89C19.2,68.65,18,75.11,16.73,80a45,45,0,0,0,56.54,0c-1.3-4.9-2.47-11.36-2.94-12.12C63.1,56.21,52,61.31,51.2,48c0,0-3.58,2.68-6.32,2.7s-6.07-2.53-6.07-2.53C38,61.47,26.9,56.22,19.67,67.89Z" transform="translate(0 0)"/><path class="cls-4" d="M51.39,49.84c-0.09-.59-0.16-1.21-0.19-1.89,0,0-3.58,2.68-6.32,2.7s-6.07-2.53-6.07-2.53c0,0.69-.11,1.32-0.2,1.92l0.21,0.17h0c0.21,0.18,3.42,2.94,6.06,2.91s5.85-2.73,6.06-2.91h0l0.46-.36h0Z" transform="translate(0 0)"/><path class="cls-3" d="M38.81,48.13c0.21,0.16,3.42,2.55,6.06,2.52s5.85-2.36,6.06-2.52c4-2.33,7.28-9.21,6.54-16.66-0.61-6.1-7.21,2.85-11.81-9.75C39.16,35.36,33,27.29,32.27,32.46c-0.78,5.69,2.42,12.86,6.54,15.67h0Z" transform="translate(0 0)"/><path class="cls-5" d="M33.56,57.68c-3.94,2.1-11.15,2.17-13.89,6.58C19.19,65,18,74.42,16.68,80a45,45,0,0,0,56.65,0c-1.32-5.54-2.66-14.87-3-15.71-1.82-4.59-10.25-4.78-14.19-6.9C50,79.59,40.86,81.11,33.56,57.68h0Z" transform="translate(0 0)"/><path class="cls-6" d="M36.19,55.47c-0.26,6.92.92,16.73,8.69,19.23-7.31.31-12.05-10.23-17.46-13l8.77-6.24h0Z" transform="translate(0 0)"/><path class="cls-6" d="M54,55.47c0.27,6.92-1,16.73-9.12,19.23,7.68,0.31,12.66-10.23,18.33-13L54,55.47h0Z" transform="translate(0 0)"/></svg>