<?xml version="1.0" encoding="utf-8"?>
<!-- Generator: Adobe Illustrator 18.0.0, SVG Export Plug-In . SVG Version: 6.00 Build 0)  -->
<!DOCTYPE svg PUBLIC "-//W3C//DTD SVG 1.1//EN" "http://www.w3.org/Graphics/SVG/1.1/DTD/svg11.dtd">
<svg version="1.1" id="Layer_1" xmlns="http://www.w3.org/2000/svg" xmlns:xlink="http://www.w3.org/1999/xlink" x="0px" y="0px"
	 viewBox="0 0 90 90" enable-background="new 0 0 90 90" xml:space="preserve">
<path fill="#33425B" d="M45,0C20.1,0,0,20.1,0,45c0,24.9,20.1,45,45,45c24.9,0,45-20.1,45-45C90,20.1,69.9,0,45,0z"/>
<polygon fill="#261D17" points="45,19.1 27,31.4 27,74 63,74 63,31.4 "/>
<path fill="#BA0F0F" d="M71.6,69.4c-1.3-4.9-12.7-8.9-26.7-8.9s-25.2,4-26.6,8.9c-0.6,2.2-1.3,6.4-1.8,10.4C24.3,86.2,34.2,90,45,90
	c10.8,0,20.7-3.8,28.5-10.1C72.9,75.8,72.2,71.6,71.6,69.4z"/>
<path fill="#E2A176" d="M52.1,51.2H37.9c2.2,6.6,0.2,9.7,0.2,9.7l4.9,1.1h4l4.9-1.1C51.9,60.8,49.9,57.8,52.1,51.2z"/>
<path fill="#F4B382" d="M45,11.2c-8,0-14.5,3.8-14.5,20.6c0,5.7,1,10.1,2.5,13.5c3.3,7.5,9.1,10.2,11.9,10.2
	c2.8,0,8.6-2.6,11.9-10.2c1.5-3.4,2.5-7.9,2.5-13.5C59.5,15,53,11.2,45,11.2z"/>
<path fill="#E24444" d="M46.9,46.8c-0.5-0.1-1.9,0.5-1.9,0.5s-1.4-0.5-1.9-0.4c-0.9,0.1-2.2,1.6-2.2,1.9c0,0,1.8,1,4.1,1
	s4.1-1,4.1-1S47.8,46.9,46.9,46.8z"/>
<path fill="#D33D3D" d="M46.1,48c-0.4,0-0.8,0.3-1.1,0.3c-0.3,0-0.9-0.3-1.3-0.3c-2.4,0.1-2.8,0.7-2.8,0.7s1.8,1.7,4.1,1.7
	c2.3,0,4.1-1.7,4.1-1.7S48.6,48.1,46.1,48z"/>
<g>
	<path fill="#E2A176" d="M51.9,60.8c0,0-1.6,3.1-6.9,3.1c-5.3,0-6.8-3.1-6.8-3.1s-1.3,9.9,6.9,9.9C53.2,70.8,51.9,60.8,51.9,60.8z"
		/>
	<path fill="#E2A176" d="M45,57.5l-6.8,3.3c0,0,3.1,5.1,6.8,5.1c3.8,0,6.9-5.1,6.9-5.1L45,57.5z"/>
</g>
<path fill="#261D17" d="M45,11.2L45,11.2L45,11.2c-9.9,0-18,3.8-18,20.6c0,0,23.6-0.3,23.6-6.4c0,6.1,12.4,6.4,12.4,6.4
	C63,15,54.9,11.2,45,11.2z"/>
<g>
	<path fill="#F4B382" d="M30.8,32.3c-1.4,0.2-2.4,0.8-1.7,5.4c0.8,4.6,1.7,4.8,3.1,4.5L30.8,32.3z"/>
	<path fill="#F4B382" d="M59.2,32.3l-1.5,9.9c1.4,0.2,2.4,0,3.1-4.5S60.6,32.5,59.2,32.3z"/>
</g>
<g>
	<path fill="#261D17" d="M31.7,32.9c-0.2-1.2,0-2.1,0-2.1l-2.7,1c0,0,1.7,0.2,2.3,2.2C31.3,33.9,31.9,34.4,31.7,32.9z"/>
	<path fill="#261D17" d="M58.3,30.8c0,0,0.2,1,0,2.1c-0.2,1.5,0.4,1,0.4,1c0.6-1.9,2.3-2.2,2.3-2.2L58.3,30.8z"/>
</g>
<g>
	<path fill="#8E7920" d="M60.8,41.9c0-0.5-0.3-0.9-0.7-1.1l-0.2,0.4c0.3,0.1,0.5,0.4,0.5,0.7c0,0.5-0.3,0.9-0.8,1
		c-0.5,0-0.9-0.3-1-0.8c0-0.3,0.1-0.6,0.3-0.7l-0.1-0.5c-0.4,0.3-0.7,0.7-0.6,1.3c0.1,0.7,0.7,1.3,1.5,1.2
		C60.3,43.3,60.9,42.6,60.8,41.9z"/>
	<path fill="#8E7920" d="M31.2,40.9l-0.1,0.5c0.2,0.2,0.3,0.5,0.3,0.7c0,0.5-0.5,0.9-1,0.8c-0.5,0-0.9-0.5-0.8-1
		c0-0.3,0.2-0.6,0.5-0.7l-0.2-0.4c-0.4,0.2-0.7,0.6-0.7,1.1c-0.1,0.7,0.5,1.4,1.2,1.5s1.4-0.5,1.5-1.2
		C31.9,41.6,31.7,41.1,31.2,40.9z"/>
</g>
<path fill="#261D17" d="M38.5,32.5c-3,0-5.5,0.5-5.5,4.3c0,2.4,1.4,4.8,5.5,4.8c3,0,5.5-2.4,5.5-4.8C44,34.4,41.5,32.5,38.5,32.5z
	 M38.5,40.6c-3.3,0-4.4-1.9-4.4-3.8c0-3,2-3.4,4.4-3.4c2.4,0,4.4,1.5,4.4,3.4S40.9,40.6,38.5,40.6z"/>
<path fill="#F4C4A4" d="M38.5,33.4c-2.4,0-4.4,0.4-4.4,3.4c0,1.9,1.1,3.8,4.4,3.8c2.4,0,4.4-1.9,4.4-3.8S40.9,33.4,38.5,33.4z"/>
<path fill="#F4CCB0" d="M38.5,33.4c-2.4,0-4.4,0.4-4.4,3.4c0,1.6,0.8,3.2,2.9,3.7l2.6-7C39.3,33.5,38.9,33.4,38.5,33.4z"/>
<path fill="#F4C4A4" d="M39.7,33.5l-2.6,7c0.4,0.1,0.9,0.1,1.4,0.1c2.4,0,4.4-1.9,4.4-3.8C42.8,35.3,41.5,33.9,39.7,33.5z"/>
<g>
	<path fill="#261D17" d="M34,34.6l-2.1-2.3c-0.2-0.2-0.5-0.2-0.8,0c-0.2,0.2-0.2,0.5,0,0.8l2.1,2.3c0.1,0.1,0.3,0.2,0.4,0.2
		c0.1,0,0.3,0,0.4-0.1C34.2,35.2,34.2,34.8,34,34.6z"/>
	<path fill="#261D17" d="M59,32.3c-0.2-0.2-0.6-0.2-0.8,0l-2.1,2.3c-0.2,0.2-0.2,0.6,0,0.8c0.1,0.1,0.2,0.1,0.4,0.1
		c0.1,0,0.3-0.1,0.4-0.2L59,33C59.2,32.8,59.2,32.5,59,32.3z"/>
	<path fill="#261D17" d="M51.5,32.5c-3,0-5.5,1.9-5.5,4.3c0,2.4,2.5,4.8,5.5,4.8c4.1,0,5.5-2.4,5.5-4.8C57,33,54.6,32.5,51.5,32.5z
		 M51.5,40.6c-2.4,0-4.4-1.9-4.4-3.8s2-3.4,4.4-3.4c2.4,0,4.4,0.4,4.4,3.4C55.9,38.7,54.8,40.6,51.5,40.6z"/>
</g>
<path fill="#F4C4A4" d="M51.5,33.4c-2.4,0-4.4,1.5-4.4,3.4s2,3.8,4.4,3.8c3.3,0,4.4-1.9,4.4-3.8C55.9,33.8,53.9,33.4,51.5,33.4z"/>
<path fill="#F4CCB0" d="M51.5,33.4c-0.4,0-0.8,0-1.2,0.1c-1.8,0.4-3.2,1.7-3.2,3.3c0,1.6,1.3,3.1,3.2,3.6l2.6-7
	C52.5,33.4,52,33.4,51.5,33.4z"/>
<path fill="#F4C4A4" d="M53,33.5l-2.6,7c0.4,0.1,0.8,0.2,1.2,0.2c0.5,0,1-0.1,1.4-0.1c2.2-0.5,2.9-2.1,2.9-3.7
	C55.9,34.5,54.7,33.7,53,33.5z"/>
<g>
	<path fill="#261D17" d="M47.4,35.5h-4.8c0,0,0.9,1.9,0.9,1.9l3.4,0C47,37.4,47.4,35.5,47.4,35.5z"/>
	<path fill="#261D17" d="M46.6,37.4c-0.5-0.3-1.1-0.7-1.7-0.7c-0.5,0-0.9,0.3-1.3,0.5c-0.6,0.3-0.6,2-0.6,2c0.4-0.7,1.1-1.2,1.9-1.2
		s1.6,0.5,1.9,1.2C46.9,39.2,47.1,37.7,46.6,37.4z"/>
</g>
</svg>
