<?xml version="1.0" encoding="utf-8"?>
<!-- Generator: Adobe Illustrator 18.0.0, SVG Export Plug-In . SVG Version: 6.00 Build 0)  -->
<!DOCTYPE svg PUBLIC "-//W3C//DTD SVG 1.1//EN" "http://www.w3.org/Graphics/SVG/1.1/DTD/svg11.dtd">
<svg version="1.1" id="Capa_1" xmlns="http://www.w3.org/2000/svg" xmlns:xlink="http://www.w3.org/1999/xlink" x="0px" y="0px"
	 viewBox="0 0 512 512" enable-background="new 0 0 512 512" xml:space="preserve">
<g>
	<g>
		<path fill="#CF2930" d="M256,0C114.8,0,0,114.8,0,256s114.8,256,256,256s256-114.8,256-256C512,114.8,397.2,0,256,0z M256,470.7
			c-118.4,0-214.7-96.3-214.7-214.7c0-118.4,96.3-214.7,214.7-214.7S470.7,137.6,470.7,256S374.4,470.7,256,470.7z"/>
		<path fill="#CF2930" d="M337.6,174.4L218.1,293.9l-43.7-43.7c-8.1-8.1-21.1-8.1-29.2,0c-8.1,8.1-8.1,21.1,0,29.2l58.3,58.3
			c4,4,9.3,6,14.6,6c5.3,0,10.6-2,14.6-6l134.1-134.1c8.1-8.1,8.1-21.1,0-29.2C358.7,166.3,345.7,166.3,337.6,174.4z"/>
	</g>
</g>
</svg>
