<svg id="Layer_1" data-name="Layer 1" xmlns="http://www.w3.org/2000/svg" viewBox="0 0 90 90"><defs><style>.cls-1{fill:#33425b;}.cls-2{fill:#84dbff;}.cls-3{fill:#fccdac;}.cls-4{fill:#54c0eb;}.cls-5{fill:#324a5e;}.cls-6{fill:#7a7700;}</style></defs><title>client_m</title><circle class="cls-1" cx="45" cy="45" r="45"/><path class="cls-2" d="M45.21,64.28c-0.07,0-.14.07-0.21,0.07s-0.14-.07-0.21-0.07h0.43Z"/><path class="cls-2" d="M79.94,73.35a45,45,0,0,1-69.87,0c5.88-7.87,14.88-11.76,22.25-13.68-0.57,4.68,1.84,10.91,1.91,10.77C36.71,64.77,45,64.28,45,64.28s8.29,0.5,10.7,6.17c0.07,0.14,2.55-6.09,1.91-10.77C65.06,61.58,74.13,65.48,79.94,73.35Z"/><path class="cls-3" d="M55.13,55.28v0.07c0,0.71-.35,5.24-9.92,8.86H44.79c-9.57-3.61-9.92-8.15-9.92-8.86V55.28a12.44,12.44,0,0,1,.43-2.76C38.06,56,41.39,58.32,45,58.32s6.94-2.34,9.71-5.81A12.44,12.44,0,0,1,55.13,55.28Z"/><path class="cls-4" d="M55.13,55.28s0.5,5.1-10.13,9.07c0,0,8.29.5,10.7,6.17C55.84,70.65,60.59,58.32,55.13,55.28Z"/><path class="cls-4" d="M34.87,55.28c-5.46,3-.71,15.38-0.57,15.17C36.78,64.77,45,64.28,45,64.28,34.37,60.38,34.87,55.28,34.87,55.28Z"/><path class="cls-3" d="M59.88,37.35A20.17,20.17,0,0,1,54.14,49a13.72,13.72,0,0,1-1.91,1.63L51.09,47H38.91L37.77,50.6c-2.27-1.7-7-6.45-7.09-10.91-2-25.44,17.5-20.06,17.5-20.06C61.3,18.71,60.87,30.26,59.88,37.35Z"/><path class="cls-3" d="M62.5,42a7.25,7.25,0,0,1-3.61,3.19,30.07,30.07,0,0,0,1.28-3.54V41.53L61,38.34H60.94c0.28-1.06.57-2.13,0.78-3.19a2,2,0,0,1,.85.28C64.13,36.43,64.06,39.33,62.5,42Z"/><path class="cls-3" d="M31.11,45.14A7.25,7.25,0,0,1,27.5,42c-1.63-2.62-1.63-5.53-.07-6.45a0.75,0.75,0,0,1,.35-0.14,48.26,48.26,0,0,0,2.06,6.31A34.31,34.31,0,0,0,31.11,45.14Z"/><path id="SVGCleanerId_0" data-name="SVGCleanerId 0" class="cls-5" d="M52.72,12.54C53.29,6,42.94,6.45,42.94,6.45,27.28,8.72,25.58,23.31,25.58,23.31l2.13-2.55c-3.33,7.3,1.7,19.84,2.13,20.83C32.46,50.31,38.27,58.32,45,58.32s12.54-8,15.17-16.72h0V41.53c0.28-1.06.57-2.13,0.78-3.19H60.87c1.42-5.67,3-11.41,3-11.41C67.89,6.59,52.72,12.54,52.72,12.54Zm7.16,24.8A20.17,20.17,0,0,1,54.14,49a19.52,19.52,0,0,1-1.91,1.63l-1.13-3.54H38.91l-1.13,3.61A22.26,22.26,0,0,1,32,43.94a15,15,0,0,1-1.35-4.18c-2-25.44,17.5-20.06,17.5-20.06C61.3,18.71,60.87,30.26,59.88,37.35Z"/><path id="SVGCleanerId_0-2" data-name="SVGCleanerId 0" class="cls-5" d="M52.72,12.54C53.29,6,42.94,6.45,42.94,6.45,27.28,8.72,25.58,23.31,25.58,23.31l2.13-2.55c-3.33,7.3,1.7,19.84,2.13,20.83C32.46,50.31,38.27,58.32,45,58.32s12.54-8,15.17-16.72h0V41.53c0.28-1.06.57-2.13,0.78-3.19H60.87c1.42-5.67,3-11.41,3-11.41C67.89,6.59,52.72,12.54,52.72,12.54Zm7.16,24.8A20.17,20.17,0,0,1,54.14,49a19.52,19.52,0,0,1-1.91,1.63l-1.13-3.54H38.91l-1.13,3.61A22.26,22.26,0,0,1,32,43.94a15,15,0,0,1-1.35-4.18c-2-25.44,17.5-20.06,17.5-20.06C61.3,18.71,60.87,30.26,59.88,37.35Z"/><path class="cls-6" d="M52.72,12.54C53.29,6,42.94,6.45,42.94,6.45,27.28,8.72,25.58,23.31,25.58,23.31l2.13-2.55c-3.33,7.3,1.7,19.84,2.13,20.83C32.46,50.31,38.27,58.32,45,58.32s12.54-8,15.17-16.72h0V41.53c0.28-1.06.57-2.13,0.78-3.19H60.87c1.42-5.67,3-11.41,3-11.41C67.89,6.59,52.72,12.54,52.72,12.54Zm7.16,24.8A20.17,20.17,0,0,1,54.14,49a19.52,19.52,0,0,1-1.91,1.63l-1.13-3.54H38.91l-1.13,3.61c-2.27-1.7-7-6.45-7.09-10.91-2-25.44,17.5-20.06,17.5-20.06C61.3,18.71,60.87,30.26,59.88,37.35Z"/><path class="cls-3" d="M40,49.46a6.69,6.69,0,0,0,5,2.27,6.45,6.45,0,0,0,5-2.27H40Z"/></svg>