<?xml version="1.0" encoding="utf-8"?>
<!-- Generator: Adobe Illustrator 18.0.0, SVG Export Plug-In . SVG Version: 6.00 Build 0)  -->
<!DOCTYPE svg PUBLIC "-//W3C//DTD SVG 1.1//EN" "http://www.w3.org/Graphics/SVG/1.1/DTD/svg11.dtd">
<svg version="1.1" id="Capa_1" xmlns="http://www.w3.org/2000/svg" xmlns:xlink="http://www.w3.org/1999/xlink" x="0px" y="0px"
	 viewBox="0 0 512 512" enable-background="new 0 0 512 512" xml:space="preserve">
<g>
	<path fill="#33425B" d="M426,256L232.3,62.4c-13.9-13.9-13.9-36.5,0-50.4c13.9-13.9,36.5-13.9,50.4,0l218.9,218.9
		c7,7,10.4,16.1,10.4,25.2c0,9.1-3.5,18.2-10.4,25.2L282.7,500c-13.9,13.9-36.5,13.9-50.4,0c-13.9-13.9-13.9-36.5,0-50.4L426,256z
		 M10.4,449.6c-13.9,13.9-13.9,36.5,0,50.4c13.9,13.9,36.5,13.9,50.4,0l218.9-218.9c7-7,10.4-16.1,10.4-25.2
		c0-9.1-3.5-18.2-10.4-25.2L60.8,11.9C46.9-2,24.4-2,10.4,11.9c-13.9,13.9-13.9,36.5,0,50.4L204.1,256L10.4,449.6z"/>
</g>
</svg>
