<svg id="Layer_1" data-name="Layer 1" xmlns="http://www.w3.org/2000/svg" viewBox="0 0 73.57 82.62"><defs><style>.cls-1{fill:#4d4d4d;}.cls-2{fill:#fad24d;}.cls-3{fill:#828282;}.cls-4{fill:#e8e8e8;}.cls-5{fill:#21d0c3;}.cls-6{fill:#fff;}.cls-7{fill:#848484;}.cls-8{fill:#545454;}.cls-9{fill:#fed198;}.cls-10{fill:#f0b97d;}.cls-11{fill:#ff5b62;}.cls-12{fill:#ecf0f1;}</style></defs><title>section-2_5</title><path class="cls-1" d="M13.89,3.69h33a1,1,0,0,1,.94.94V68.08a1,1,0,0,1-.94.94h-33a1,1,0,0,1-.94-0.94V4.63A1,1,0,0,1,13.89,3.69Z" transform="translate(-12.95 -3.69)"/><path class="cls-2" d="M15.34,12.51H45.48a0.73,0.73,0,0,1,.73.73V59.48a0.73,0.73,0,0,1-.73.73H15.34a0.73,0.73,0,0,1-.73-0.73V13.24A0.74,0.74,0,0,1,15.34,12.51Z" transform="translate(-12.95 -3.69)"/><path class="cls-3" d="M22.48,7.72H38.34a0.66,0.66,0,0,1,0,1.32H22.48A0.66,0.66,0,0,1,22.48,7.72Z" transform="translate(-12.95 -3.69)"/><path class="cls-3" d="M30.41,62.4a2.32,2.32,0,1,1-2.32,2.32A2.32,2.32,0,0,1,30.41,62.4Z" transform="translate(-12.95 -3.69)"/><path class="cls-4" d="M75.62,12.51H33.91V79.59H75.62V12.51Z" transform="translate(-12.95 -3.69)"/><path class="cls-5" d="M75.62,12.51H33.91v4.63H75.62V12.51Z" transform="translate(-12.95 -3.69)"/><path class="cls-6" d="M63.33,13.79H36.13a1,1,0,1,0,0,2.05h27.2A1,1,0,1,0,63.33,13.79Z" transform="translate(-12.95 -3.69)"/><path class="cls-6" d="M66.84,13.94a0.88,0.88,0,1,1-.88.88A0.88,0.88,0,0,1,66.84,13.94Z" transform="translate(-12.95 -3.69)"/><path class="cls-6" d="M70.13,13.94a0.88,0.88,0,1,1-.88.88A0.88,0.88,0,0,1,70.13,13.94Z" transform="translate(-12.95 -3.69)"/><path class="cls-6" d="M73.41,13.94a0.88,0.88,0,1,1-.88.88A0.88,0.88,0,0,1,73.41,13.94Z" transform="translate(-12.95 -3.69)"/><path class="cls-7" d="M36.53,19.89H54.44V41H36.53V19.89Z" transform="translate(-12.95 -3.69)"/><path class="cls-7" d="M56.65,37.06H65.3v0.83H56.65V37.06ZM42.17,71.14H67.36V72H42.17V71.14Zm-3.11-3.43h31.4v0.83H39.07V67.71Zm0-3.43h31.4v0.83H39.07V64.28ZM36.53,57h31.4v0.83H36.53V57Zm0-3.43h31.4v0.83H36.53V53.56Zm0-3.43H61.72V51H36.53V50.13Zm0-3.43h31.4v0.83H36.53V46.7Zm0-3.43h31.4v0.83H36.53V43.27ZM56.65,19.89H72v0.83H56.65V19.89Zm0,3.43H72v0.83H56.65V23.33Zm0,3.43H69v0.83H56.65V26.76Zm0,3.43H72V31H56.65V30.19Zm0,3.43H72v0.83H56.65V33.62Z" transform="translate(-12.95 -3.69)"/><path class="cls-5" d="M45.94,60.43H63.59v0.83H45.94V60.43Z" transform="translate(-12.95 -3.69)"/><path class="cls-8" d="M76.14,40.66h0c-1.25-.12-2.06.88-2.46,2.07L71.2,50.14,70,49.06l-2.3-3-4-7.16-4.09-7.2a2.33,2.33,0,0,0-3.17-.92,2.36,2.36,0,0,0-.86,3.19l7,12.36-0.52.33-1.51-3a2.31,2.31,0,0,0-3.17-.92A2.38,2.38,0,0,0,56.52,46l1.64,3.21-0.58.38-1-2.09a2.28,2.28,0,0,0-3.17-.92,2.42,2.42,0,0,0-.86,3.19l1.15,2.35-0.7.45-0.63-1.17a2.31,2.31,0,0,0-3.17-.92,2.38,2.38,0,0,0-.86,3.19L49.63,56l0.19,0.44L57.94,69a7.77,7.77,0,0,0,3.92,3.15,3.58,3.58,0,0,0,1,.18l7.6,13.12,14.24-8.05L75.51,64c2.22-3.35,2.36-16.37,2.72-20.85a2.35,2.35,0,0,0-2.09-2.51h0Z" transform="translate(-12.95 -3.69)"/><path class="cls-9" d="M76.87,40.66h0c-1.25-.12-2.06.88-2.46,2.07l-2.48,7.41-1.16-1.08-2.3-3-4-7.16-4.09-7.2a2.33,2.33,0,0,0-3.17-.92,2.36,2.36,0,0,0-.86,3.19l7,12.36-0.52.33-1.51-3a2.31,2.31,0,0,0-3.17-.92A2.38,2.38,0,0,0,57.25,46l1.64,3.21-0.58.38-1-2.09a2.28,2.28,0,0,0-3.17-.92,2.42,2.42,0,0,0-.86,3.19l1.15,2.35-0.7.45-0.63-1.17a2.31,2.31,0,0,0-3.17-.92A2.38,2.38,0,0,0,49,53.61L50.36,56l0.19,0.44L58.67,69a7.77,7.77,0,0,0,3.92,3.15,3.58,3.58,0,0,0,1,.18l7.6,13.12,14.24-8.05L76.24,64C78.46,60.68,78.6,47.66,79,43.17a2.35,2.35,0,0,0-2.09-2.51h0Z" transform="translate(-12.95 -3.69)"/><path class="cls-10" d="M84.29,78l1.13-.64L76.24,64C78.46,60.68,78.6,47.66,79,43.17a2.31,2.31,0,0,0,0-.66c-0.92,6.3-1,17.92-3.62,21.54l9,14h0Z" transform="translate(-12.95 -3.69)"/><path class="cls-11" d="M82.26,70.16L66.19,79.51l3.41,6.8,16.92-9.57-4.25-6.58h0Z" transform="translate(-12.95 -3.69)"/><path class="cls-12" d="M69.58,80.12a1.73,1.73,0,1,0,2.37.61A1.73,1.73,0,0,0,69.58,80.12Z" transform="translate(-12.95 -3.69)"/><path class="cls-6" d="M56.64,33.37l1,1.78,2.7-1.53-1-1.78c-0.77-1.4-3.6.22-2.7,1.53h0Zm18.65,8.92h0L74.7,44.66l3,0.8,0.59-2.37C78.71,41.56,75.67,40.77,75.29,42.29Z" transform="translate(-12.95 -3.69)"/><path class="cls-3" d="M17.5,7.59a0.83,0.83,0,1,1-.83.83A0.83,0.83,0,0,1,17.5,7.59Z" transform="translate(-12.95 -3.69)"/></svg>